%FSLAX45Y45*%
G04 Gerber Fmt 4.5, Leading zero omitted, Abs format (unit mm)*
G04 Created by KiCad (PCBNEW (6.0.5)) date 2022-06-23 10:46:32*
%MOMM*%
%LPD*%
G01*
G04 APERTURE LIST*
%TA.AperFunction,Profile*%
%ADD10C,0.100000*%
%TD*%
%ADD11C,0.200000*%
%ADD12C,0.080000*%
%ADD13C,0.100000*%
%ADD14C,0.110000*%
%ADD15C,0.130000*%
%ADD16C,0.320000*%
G04 APERTURE END LIST*
D10*
X10541000Y-8001000D02*
X14478000Y-8001000D01*
X14478000Y-8001000D02*
X14478000Y-11303000D01*
X14478000Y-11303000D02*
X10541000Y-11303000D01*
X10541000Y-11303000D02*
X10541000Y-8001000D01*
D11*
D12*
X12787000Y-8981000D02*
X12867000Y-9061000D01*
X12867000Y-8981000D02*
X12787000Y-9061000D01*
X12787000Y-9481000D02*
X12867000Y-9561000D01*
X12867000Y-9481000D02*
X12787000Y-9561000D01*
X12787000Y-9874000D02*
X12867000Y-9954000D01*
X12867000Y-9874000D02*
X12787000Y-9954000D01*
X12787000Y-10374000D02*
X12867000Y-10454000D01*
X12867000Y-10374000D02*
X12787000Y-10454000D01*
D13*
X11992000Y-10922000D02*
G75*
G03*
X11992000Y-10922000I-50000J0D01*
G01*
X11996000Y-8382000D02*
G75*
G03*
X11996000Y-8382000I-50000J0D01*
G01*
X12492000Y-10922000D02*
G75*
G03*
X12492000Y-10922000I-50000J0D01*
G01*
X12496000Y-8382000D02*
G75*
G03*
X12496000Y-8382000I-50000J0D01*
G01*
X13266000Y-8382000D02*
G75*
G03*
X13266000Y-8382000I-50000J0D01*
G01*
X13766000Y-8382000D02*
G75*
G03*
X13766000Y-8382000I-50000J0D01*
G01*
D14*
X11046000Y-9296350D02*
X11046000Y-9406350D01*
X10991000Y-9351350D02*
X11101000Y-9351350D01*
X11046000Y-9796350D02*
X11046000Y-9906350D01*
X10991000Y-9851350D02*
X11101000Y-9851350D01*
X11046000Y-10296350D02*
X11046000Y-10406350D01*
X10991000Y-10351350D02*
X11101000Y-10351350D01*
X11546000Y-9046350D02*
X11546000Y-9156350D01*
X11491000Y-9101350D02*
X11601000Y-9101350D01*
X11546000Y-9546350D02*
X11546000Y-9656350D01*
X11491000Y-9601350D02*
X11601000Y-9601350D01*
X11546000Y-10046350D02*
X11546000Y-10156350D01*
X11491000Y-10101350D02*
X11601000Y-10101350D01*
D15*
X13888962Y-9070962D02*
X13888962Y-8979038D01*
X13797038Y-8979038D01*
X13797038Y-9070962D01*
X13888962Y-9070962D01*
X13888962Y-9570962D02*
X13888962Y-9479038D01*
X13797038Y-9479038D01*
X13797038Y-9570962D01*
X13888962Y-9570962D01*
X13888962Y-10086962D02*
X13888962Y-9995038D01*
X13797038Y-9995038D01*
X13797038Y-10086962D01*
X13888962Y-10086962D01*
X13888962Y-10586962D02*
X13888962Y-10495038D01*
X13797038Y-10495038D01*
X13797038Y-10586962D01*
X13888962Y-10586962D01*
D16*
X11176000Y-8542000D02*
X11336000Y-8382000D01*
X11176000Y-8222000D01*
X11016000Y-8382000D01*
X11176000Y-8542000D01*
X11176000Y-11067271D02*
X11336000Y-10907271D01*
X11176000Y-10747271D01*
X11016000Y-10907271D01*
X11176000Y-11067271D01*
D11*
X10793619Y-11618476D02*
X10793619Y-11418476D01*
X10841238Y-11418476D01*
X10869810Y-11428000D01*
X10888857Y-11447048D01*
X10898381Y-11466095D01*
X10907905Y-11504190D01*
X10907905Y-11532762D01*
X10898381Y-11570857D01*
X10888857Y-11589905D01*
X10869810Y-11608952D01*
X10841238Y-11618476D01*
X10793619Y-11618476D01*
X10993619Y-11618476D02*
X10993619Y-11485143D01*
X10993619Y-11523238D02*
X11003143Y-11504190D01*
X11012667Y-11494667D01*
X11031714Y-11485143D01*
X11050762Y-11485143D01*
X11117429Y-11618476D02*
X11117429Y-11485143D01*
X11117429Y-11418476D02*
X11107905Y-11428000D01*
X11117429Y-11437524D01*
X11126952Y-11428000D01*
X11117429Y-11418476D01*
X11117429Y-11437524D01*
X11241238Y-11618476D02*
X11222190Y-11608952D01*
X11212667Y-11589905D01*
X11212667Y-11418476D01*
X11346000Y-11618476D02*
X11326952Y-11608952D01*
X11317428Y-11589905D01*
X11317428Y-11418476D01*
X11574571Y-11618476D02*
X11574571Y-11418476D01*
X11641238Y-11561333D01*
X11707905Y-11418476D01*
X11707905Y-11618476D01*
X11888857Y-11618476D02*
X11888857Y-11513714D01*
X11879333Y-11494667D01*
X11860286Y-11485143D01*
X11822190Y-11485143D01*
X11803143Y-11494667D01*
X11888857Y-11608952D02*
X11869809Y-11618476D01*
X11822190Y-11618476D01*
X11803143Y-11608952D01*
X11793619Y-11589905D01*
X11793619Y-11570857D01*
X11803143Y-11551809D01*
X11822190Y-11542286D01*
X11869809Y-11542286D01*
X11888857Y-11532762D01*
X11984095Y-11485143D02*
X11984095Y-11685143D01*
X11984095Y-11494667D02*
X12003143Y-11485143D01*
X12041238Y-11485143D01*
X12060286Y-11494667D01*
X12069809Y-11504190D01*
X12079333Y-11523238D01*
X12079333Y-11580381D01*
X12069809Y-11599428D01*
X12060286Y-11608952D01*
X12041238Y-11618476D01*
X12003143Y-11618476D01*
X11984095Y-11608952D01*
X12165048Y-11599428D02*
X12174571Y-11608952D01*
X12165048Y-11618476D01*
X12155524Y-11608952D01*
X12165048Y-11599428D01*
X12165048Y-11618476D01*
X12165048Y-11494667D02*
X12174571Y-11504190D01*
X12165048Y-11513714D01*
X12155524Y-11504190D01*
X12165048Y-11494667D01*
X12165048Y-11513714D01*
D12*
X10456000Y-11908000D02*
X10536000Y-11988000D01*
X10536000Y-11908000D02*
X10456000Y-11988000D01*
D11*
X10831714Y-11838476D02*
X10850762Y-11838476D01*
X10869810Y-11848000D01*
X10879333Y-11857524D01*
X10888857Y-11876571D01*
X10898381Y-11914667D01*
X10898381Y-11962286D01*
X10888857Y-12000381D01*
X10879333Y-12019428D01*
X10869810Y-12028952D01*
X10850762Y-12038476D01*
X10831714Y-12038476D01*
X10812667Y-12028952D01*
X10803143Y-12019428D01*
X10793619Y-12000381D01*
X10784095Y-11962286D01*
X10784095Y-11914667D01*
X10793619Y-11876571D01*
X10803143Y-11857524D01*
X10812667Y-11848000D01*
X10831714Y-11838476D01*
X10984095Y-12019428D02*
X10993619Y-12028952D01*
X10984095Y-12038476D01*
X10974571Y-12028952D01*
X10984095Y-12019428D01*
X10984095Y-12038476D01*
X11107905Y-11924190D02*
X11088857Y-11914667D01*
X11079333Y-11905143D01*
X11069810Y-11886095D01*
X11069810Y-11876571D01*
X11079333Y-11857524D01*
X11088857Y-11848000D01*
X11107905Y-11838476D01*
X11146000Y-11838476D01*
X11165048Y-11848000D01*
X11174571Y-11857524D01*
X11184095Y-11876571D01*
X11184095Y-11886095D01*
X11174571Y-11905143D01*
X11165048Y-11914667D01*
X11146000Y-11924190D01*
X11107905Y-11924190D01*
X11088857Y-11933714D01*
X11079333Y-11943238D01*
X11069810Y-11962286D01*
X11069810Y-12000381D01*
X11079333Y-12019428D01*
X11088857Y-12028952D01*
X11107905Y-12038476D01*
X11146000Y-12038476D01*
X11165048Y-12028952D01*
X11174571Y-12019428D01*
X11184095Y-12000381D01*
X11184095Y-11962286D01*
X11174571Y-11943238D01*
X11165048Y-11933714D01*
X11146000Y-11924190D01*
X11307905Y-11838476D02*
X11326952Y-11838476D01*
X11346000Y-11848000D01*
X11355524Y-11857524D01*
X11365048Y-11876571D01*
X11374571Y-11914667D01*
X11374571Y-11962286D01*
X11365048Y-12000381D01*
X11355524Y-12019428D01*
X11346000Y-12028952D01*
X11326952Y-12038476D01*
X11307905Y-12038476D01*
X11288857Y-12028952D01*
X11279333Y-12019428D01*
X11269809Y-12000381D01*
X11260286Y-11962286D01*
X11260286Y-11914667D01*
X11269809Y-11876571D01*
X11279333Y-11857524D01*
X11288857Y-11848000D01*
X11307905Y-11838476D01*
X11498381Y-11838476D02*
X11517428Y-11838476D01*
X11536476Y-11848000D01*
X11546000Y-11857524D01*
X11555524Y-11876571D01*
X11565048Y-11914667D01*
X11565048Y-11962286D01*
X11555524Y-12000381D01*
X11546000Y-12019428D01*
X11536476Y-12028952D01*
X11517428Y-12038476D01*
X11498381Y-12038476D01*
X11479333Y-12028952D01*
X11469809Y-12019428D01*
X11460286Y-12000381D01*
X11450762Y-11962286D01*
X11450762Y-11914667D01*
X11460286Y-11876571D01*
X11469809Y-11857524D01*
X11479333Y-11848000D01*
X11498381Y-11838476D01*
X11650762Y-12038476D02*
X11650762Y-11905143D01*
X11650762Y-11924190D02*
X11660286Y-11914667D01*
X11679333Y-11905143D01*
X11707905Y-11905143D01*
X11726952Y-11914667D01*
X11736476Y-11933714D01*
X11736476Y-12038476D01*
X11736476Y-11933714D02*
X11746000Y-11914667D01*
X11765048Y-11905143D01*
X11793619Y-11905143D01*
X11812667Y-11914667D01*
X11822190Y-11933714D01*
X11822190Y-12038476D01*
X11917428Y-12038476D02*
X11917428Y-11905143D01*
X11917428Y-11924190D02*
X11926952Y-11914667D01*
X11946000Y-11905143D01*
X11974571Y-11905143D01*
X11993619Y-11914667D01*
X12003143Y-11933714D01*
X12003143Y-12038476D01*
X12003143Y-11933714D02*
X12012667Y-11914667D01*
X12031714Y-11905143D01*
X12060286Y-11905143D01*
X12079333Y-11914667D01*
X12088857Y-11933714D01*
X12088857Y-12038476D01*
X12479333Y-11828952D02*
X12307905Y-12086095D01*
X12736476Y-11838476D02*
X12755524Y-11838476D01*
X12774571Y-11848000D01*
X12784095Y-11857524D01*
X12793619Y-11876571D01*
X12803143Y-11914667D01*
X12803143Y-11962286D01*
X12793619Y-12000381D01*
X12784095Y-12019428D01*
X12774571Y-12028952D01*
X12755524Y-12038476D01*
X12736476Y-12038476D01*
X12717428Y-12028952D01*
X12707905Y-12019428D01*
X12698381Y-12000381D01*
X12688857Y-11962286D01*
X12688857Y-11914667D01*
X12698381Y-11876571D01*
X12707905Y-11857524D01*
X12717428Y-11848000D01*
X12736476Y-11838476D01*
X12888857Y-12019428D02*
X12898381Y-12028952D01*
X12888857Y-12038476D01*
X12879333Y-12028952D01*
X12888857Y-12019428D01*
X12888857Y-12038476D01*
X13022190Y-11838476D02*
X13041238Y-11838476D01*
X13060286Y-11848000D01*
X13069809Y-11857524D01*
X13079333Y-11876571D01*
X13088857Y-11914667D01*
X13088857Y-11962286D01*
X13079333Y-12000381D01*
X13069809Y-12019428D01*
X13060286Y-12028952D01*
X13041238Y-12038476D01*
X13022190Y-12038476D01*
X13003143Y-12028952D01*
X12993619Y-12019428D01*
X12984095Y-12000381D01*
X12974571Y-11962286D01*
X12974571Y-11914667D01*
X12984095Y-11876571D01*
X12993619Y-11857524D01*
X13003143Y-11848000D01*
X13022190Y-11838476D01*
X13155524Y-11838476D02*
X13279333Y-11838476D01*
X13212667Y-11914667D01*
X13241238Y-11914667D01*
X13260286Y-11924190D01*
X13269809Y-11933714D01*
X13279333Y-11952762D01*
X13279333Y-12000381D01*
X13269809Y-12019428D01*
X13260286Y-12028952D01*
X13241238Y-12038476D01*
X13184095Y-12038476D01*
X13165048Y-12028952D01*
X13155524Y-12019428D01*
X13469809Y-12038476D02*
X13355524Y-12038476D01*
X13412667Y-12038476D02*
X13412667Y-11838476D01*
X13393619Y-11867048D01*
X13374571Y-11886095D01*
X13355524Y-11895619D01*
X13650762Y-11838476D02*
X13555524Y-11838476D01*
X13546000Y-11933714D01*
X13555524Y-11924190D01*
X13574571Y-11914667D01*
X13622190Y-11914667D01*
X13641238Y-11924190D01*
X13650762Y-11933714D01*
X13660286Y-11952762D01*
X13660286Y-12000381D01*
X13650762Y-12019428D01*
X13641238Y-12028952D01*
X13622190Y-12038476D01*
X13574571Y-12038476D01*
X13555524Y-12028952D01*
X13546000Y-12019428D01*
X13736476Y-11838476D02*
X13736476Y-11876571D01*
X13812667Y-11838476D02*
X13812667Y-11876571D01*
X14107905Y-12114667D02*
X14098381Y-12105143D01*
X14079333Y-12076571D01*
X14069809Y-12057524D01*
X14060286Y-12028952D01*
X14050762Y-11981333D01*
X14050762Y-11943238D01*
X14060286Y-11895619D01*
X14069809Y-11867048D01*
X14079333Y-11848000D01*
X14098381Y-11819428D01*
X14107905Y-11809905D01*
X14269809Y-11905143D02*
X14269809Y-12038476D01*
X14222190Y-11828952D02*
X14174571Y-11971809D01*
X14298381Y-11971809D01*
X14526952Y-12038476D02*
X14526952Y-11838476D01*
X14612667Y-12038476D02*
X14612667Y-11933714D01*
X14603143Y-11914667D01*
X14584095Y-11905143D01*
X14555524Y-11905143D01*
X14536476Y-11914667D01*
X14526952Y-11924190D01*
X14736476Y-12038476D02*
X14717428Y-12028952D01*
X14707905Y-12019428D01*
X14698381Y-12000381D01*
X14698381Y-11943238D01*
X14707905Y-11924190D01*
X14717428Y-11914667D01*
X14736476Y-11905143D01*
X14765048Y-11905143D01*
X14784095Y-11914667D01*
X14793619Y-11924190D01*
X14803143Y-11943238D01*
X14803143Y-12000381D01*
X14793619Y-12019428D01*
X14784095Y-12028952D01*
X14765048Y-12038476D01*
X14736476Y-12038476D01*
X14917428Y-12038476D02*
X14898381Y-12028952D01*
X14888857Y-12009905D01*
X14888857Y-11838476D01*
X15069809Y-12028952D02*
X15050762Y-12038476D01*
X15012667Y-12038476D01*
X14993619Y-12028952D01*
X14984095Y-12009905D01*
X14984095Y-11933714D01*
X14993619Y-11914667D01*
X15012667Y-11905143D01*
X15050762Y-11905143D01*
X15069809Y-11914667D01*
X15079333Y-11933714D01*
X15079333Y-11952762D01*
X14984095Y-11971809D01*
X15155524Y-12028952D02*
X15174571Y-12038476D01*
X15212667Y-12038476D01*
X15231714Y-12028952D01*
X15241238Y-12009905D01*
X15241238Y-12000381D01*
X15231714Y-11981333D01*
X15212667Y-11971809D01*
X15184095Y-11971809D01*
X15165048Y-11962286D01*
X15155524Y-11943238D01*
X15155524Y-11933714D01*
X15165048Y-11914667D01*
X15184095Y-11905143D01*
X15212667Y-11905143D01*
X15231714Y-11914667D01*
X15307905Y-12114667D02*
X15317428Y-12105143D01*
X15336476Y-12076571D01*
X15346000Y-12057524D01*
X15355524Y-12028952D01*
X15365048Y-11981333D01*
X15365048Y-11943238D01*
X15355524Y-11895619D01*
X15346000Y-11867048D01*
X15336476Y-11848000D01*
X15317428Y-11819428D01*
X15307905Y-11809905D01*
D13*
X10536000Y-12212000D02*
G75*
G03*
X10536000Y-12212000I-50000J0D01*
G01*
D11*
X10898381Y-12302476D02*
X10784095Y-12302476D01*
X10841238Y-12302476D02*
X10841238Y-12102476D01*
X10822190Y-12131048D01*
X10803143Y-12150095D01*
X10784095Y-12159619D01*
X10984095Y-12283428D02*
X10993619Y-12292952D01*
X10984095Y-12302476D01*
X10974571Y-12292952D01*
X10984095Y-12283428D01*
X10984095Y-12302476D01*
X11117429Y-12102476D02*
X11136476Y-12102476D01*
X11155524Y-12112000D01*
X11165048Y-12121524D01*
X11174571Y-12140571D01*
X11184095Y-12178667D01*
X11184095Y-12226286D01*
X11174571Y-12264381D01*
X11165048Y-12283428D01*
X11155524Y-12292952D01*
X11136476Y-12302476D01*
X11117429Y-12302476D01*
X11098381Y-12292952D01*
X11088857Y-12283428D01*
X11079333Y-12264381D01*
X11069810Y-12226286D01*
X11069810Y-12178667D01*
X11079333Y-12140571D01*
X11088857Y-12121524D01*
X11098381Y-12112000D01*
X11117429Y-12102476D01*
X11307905Y-12102476D02*
X11326952Y-12102476D01*
X11346000Y-12112000D01*
X11355524Y-12121524D01*
X11365048Y-12140571D01*
X11374571Y-12178667D01*
X11374571Y-12226286D01*
X11365048Y-12264381D01*
X11355524Y-12283428D01*
X11346000Y-12292952D01*
X11326952Y-12302476D01*
X11307905Y-12302476D01*
X11288857Y-12292952D01*
X11279333Y-12283428D01*
X11269809Y-12264381D01*
X11260286Y-12226286D01*
X11260286Y-12178667D01*
X11269809Y-12140571D01*
X11279333Y-12121524D01*
X11288857Y-12112000D01*
X11307905Y-12102476D01*
X11498381Y-12102476D02*
X11517428Y-12102476D01*
X11536476Y-12112000D01*
X11546000Y-12121524D01*
X11555524Y-12140571D01*
X11565048Y-12178667D01*
X11565048Y-12226286D01*
X11555524Y-12264381D01*
X11546000Y-12283428D01*
X11536476Y-12292952D01*
X11517428Y-12302476D01*
X11498381Y-12302476D01*
X11479333Y-12292952D01*
X11469809Y-12283428D01*
X11460286Y-12264381D01*
X11450762Y-12226286D01*
X11450762Y-12178667D01*
X11460286Y-12140571D01*
X11469809Y-12121524D01*
X11479333Y-12112000D01*
X11498381Y-12102476D01*
X11650762Y-12302476D02*
X11650762Y-12169143D01*
X11650762Y-12188190D02*
X11660286Y-12178667D01*
X11679333Y-12169143D01*
X11707905Y-12169143D01*
X11726952Y-12178667D01*
X11736476Y-12197714D01*
X11736476Y-12302476D01*
X11736476Y-12197714D02*
X11746000Y-12178667D01*
X11765048Y-12169143D01*
X11793619Y-12169143D01*
X11812667Y-12178667D01*
X11822190Y-12197714D01*
X11822190Y-12302476D01*
X11917428Y-12302476D02*
X11917428Y-12169143D01*
X11917428Y-12188190D02*
X11926952Y-12178667D01*
X11946000Y-12169143D01*
X11974571Y-12169143D01*
X11993619Y-12178667D01*
X12003143Y-12197714D01*
X12003143Y-12302476D01*
X12003143Y-12197714D02*
X12012667Y-12178667D01*
X12031714Y-12169143D01*
X12060286Y-12169143D01*
X12079333Y-12178667D01*
X12088857Y-12197714D01*
X12088857Y-12302476D01*
X12479333Y-12092952D02*
X12307905Y-12350095D01*
X12736476Y-12102476D02*
X12755524Y-12102476D01*
X12774571Y-12112000D01*
X12784095Y-12121524D01*
X12793619Y-12140571D01*
X12803143Y-12178667D01*
X12803143Y-12226286D01*
X12793619Y-12264381D01*
X12784095Y-12283428D01*
X12774571Y-12292952D01*
X12755524Y-12302476D01*
X12736476Y-12302476D01*
X12717428Y-12292952D01*
X12707905Y-12283428D01*
X12698381Y-12264381D01*
X12688857Y-12226286D01*
X12688857Y-12178667D01*
X12698381Y-12140571D01*
X12707905Y-12121524D01*
X12717428Y-12112000D01*
X12736476Y-12102476D01*
X12888857Y-12283428D02*
X12898381Y-12292952D01*
X12888857Y-12302476D01*
X12879333Y-12292952D01*
X12888857Y-12283428D01*
X12888857Y-12302476D01*
X13022190Y-12102476D02*
X13041238Y-12102476D01*
X13060286Y-12112000D01*
X13069809Y-12121524D01*
X13079333Y-12140571D01*
X13088857Y-12178667D01*
X13088857Y-12226286D01*
X13079333Y-12264381D01*
X13069809Y-12283428D01*
X13060286Y-12292952D01*
X13041238Y-12302476D01*
X13022190Y-12302476D01*
X13003143Y-12292952D01*
X12993619Y-12283428D01*
X12984095Y-12264381D01*
X12974571Y-12226286D01*
X12974571Y-12178667D01*
X12984095Y-12140571D01*
X12993619Y-12121524D01*
X13003143Y-12112000D01*
X13022190Y-12102476D01*
X13155524Y-12102476D02*
X13279333Y-12102476D01*
X13212667Y-12178667D01*
X13241238Y-12178667D01*
X13260286Y-12188190D01*
X13269809Y-12197714D01*
X13279333Y-12216762D01*
X13279333Y-12264381D01*
X13269809Y-12283428D01*
X13260286Y-12292952D01*
X13241238Y-12302476D01*
X13184095Y-12302476D01*
X13165048Y-12292952D01*
X13155524Y-12283428D01*
X13374571Y-12302476D02*
X13412667Y-12302476D01*
X13431714Y-12292952D01*
X13441238Y-12283428D01*
X13460286Y-12254857D01*
X13469809Y-12216762D01*
X13469809Y-12140571D01*
X13460286Y-12121524D01*
X13450762Y-12112000D01*
X13431714Y-12102476D01*
X13393619Y-12102476D01*
X13374571Y-12112000D01*
X13365048Y-12121524D01*
X13355524Y-12140571D01*
X13355524Y-12188190D01*
X13365048Y-12207238D01*
X13374571Y-12216762D01*
X13393619Y-12226286D01*
X13431714Y-12226286D01*
X13450762Y-12216762D01*
X13460286Y-12207238D01*
X13469809Y-12188190D01*
X13641238Y-12169143D02*
X13641238Y-12302476D01*
X13593619Y-12092952D02*
X13546000Y-12235809D01*
X13669809Y-12235809D01*
X13736476Y-12102476D02*
X13736476Y-12140571D01*
X13812667Y-12102476D02*
X13812667Y-12140571D01*
X14107905Y-12378667D02*
X14098381Y-12369143D01*
X14079333Y-12340571D01*
X14069809Y-12321524D01*
X14060286Y-12292952D01*
X14050762Y-12245333D01*
X14050762Y-12207238D01*
X14060286Y-12159619D01*
X14069809Y-12131048D01*
X14079333Y-12112000D01*
X14098381Y-12083428D01*
X14107905Y-12073905D01*
X14269809Y-12102476D02*
X14231714Y-12102476D01*
X14212667Y-12112000D01*
X14203143Y-12121524D01*
X14184095Y-12150095D01*
X14174571Y-12188190D01*
X14174571Y-12264381D01*
X14184095Y-12283428D01*
X14193619Y-12292952D01*
X14212667Y-12302476D01*
X14250762Y-12302476D01*
X14269809Y-12292952D01*
X14279333Y-12283428D01*
X14288857Y-12264381D01*
X14288857Y-12216762D01*
X14279333Y-12197714D01*
X14269809Y-12188190D01*
X14250762Y-12178667D01*
X14212667Y-12178667D01*
X14193619Y-12188190D01*
X14184095Y-12197714D01*
X14174571Y-12216762D01*
X14526952Y-12302476D02*
X14526952Y-12102476D01*
X14612667Y-12302476D02*
X14612667Y-12197714D01*
X14603143Y-12178667D01*
X14584095Y-12169143D01*
X14555524Y-12169143D01*
X14536476Y-12178667D01*
X14526952Y-12188190D01*
X14736476Y-12302476D02*
X14717428Y-12292952D01*
X14707905Y-12283428D01*
X14698381Y-12264381D01*
X14698381Y-12207238D01*
X14707905Y-12188190D01*
X14717428Y-12178667D01*
X14736476Y-12169143D01*
X14765048Y-12169143D01*
X14784095Y-12178667D01*
X14793619Y-12188190D01*
X14803143Y-12207238D01*
X14803143Y-12264381D01*
X14793619Y-12283428D01*
X14784095Y-12292952D01*
X14765048Y-12302476D01*
X14736476Y-12302476D01*
X14917428Y-12302476D02*
X14898381Y-12292952D01*
X14888857Y-12273905D01*
X14888857Y-12102476D01*
X15069809Y-12292952D02*
X15050762Y-12302476D01*
X15012667Y-12302476D01*
X14993619Y-12292952D01*
X14984095Y-12273905D01*
X14984095Y-12197714D01*
X14993619Y-12178667D01*
X15012667Y-12169143D01*
X15050762Y-12169143D01*
X15069809Y-12178667D01*
X15079333Y-12197714D01*
X15079333Y-12216762D01*
X14984095Y-12235809D01*
X15155524Y-12292952D02*
X15174571Y-12302476D01*
X15212667Y-12302476D01*
X15231714Y-12292952D01*
X15241238Y-12273905D01*
X15241238Y-12264381D01*
X15231714Y-12245333D01*
X15212667Y-12235809D01*
X15184095Y-12235809D01*
X15165048Y-12226286D01*
X15155524Y-12207238D01*
X15155524Y-12197714D01*
X15165048Y-12178667D01*
X15184095Y-12169143D01*
X15212667Y-12169143D01*
X15231714Y-12178667D01*
X15307905Y-12378667D02*
X15317428Y-12369143D01*
X15336476Y-12340571D01*
X15346000Y-12321524D01*
X15355524Y-12292952D01*
X15365048Y-12245333D01*
X15365048Y-12207238D01*
X15355524Y-12159619D01*
X15346000Y-12131048D01*
X15336476Y-12112000D01*
X15317428Y-12083428D01*
X15307905Y-12073905D01*
D14*
X10481000Y-12421000D02*
X10481000Y-12531000D01*
X10426000Y-12476000D02*
X10536000Y-12476000D01*
D11*
X10898381Y-12566476D02*
X10784095Y-12566476D01*
X10841238Y-12566476D02*
X10841238Y-12366476D01*
X10822190Y-12395048D01*
X10803143Y-12414095D01*
X10784095Y-12423619D01*
X10984095Y-12547428D02*
X10993619Y-12556952D01*
X10984095Y-12566476D01*
X10974571Y-12556952D01*
X10984095Y-12547428D01*
X10984095Y-12566476D01*
X11184095Y-12566476D02*
X11069810Y-12566476D01*
X11126952Y-12566476D02*
X11126952Y-12366476D01*
X11107905Y-12395048D01*
X11088857Y-12414095D01*
X11069810Y-12423619D01*
X11307905Y-12366476D02*
X11326952Y-12366476D01*
X11346000Y-12376000D01*
X11355524Y-12385524D01*
X11365048Y-12404571D01*
X11374571Y-12442667D01*
X11374571Y-12490286D01*
X11365048Y-12528381D01*
X11355524Y-12547428D01*
X11346000Y-12556952D01*
X11326952Y-12566476D01*
X11307905Y-12566476D01*
X11288857Y-12556952D01*
X11279333Y-12547428D01*
X11269809Y-12528381D01*
X11260286Y-12490286D01*
X11260286Y-12442667D01*
X11269809Y-12404571D01*
X11279333Y-12385524D01*
X11288857Y-12376000D01*
X11307905Y-12366476D01*
X11498381Y-12366476D02*
X11517428Y-12366476D01*
X11536476Y-12376000D01*
X11546000Y-12385524D01*
X11555524Y-12404571D01*
X11565048Y-12442667D01*
X11565048Y-12490286D01*
X11555524Y-12528381D01*
X11546000Y-12547428D01*
X11536476Y-12556952D01*
X11517428Y-12566476D01*
X11498381Y-12566476D01*
X11479333Y-12556952D01*
X11469809Y-12547428D01*
X11460286Y-12528381D01*
X11450762Y-12490286D01*
X11450762Y-12442667D01*
X11460286Y-12404571D01*
X11469809Y-12385524D01*
X11479333Y-12376000D01*
X11498381Y-12366476D01*
X11650762Y-12566476D02*
X11650762Y-12433143D01*
X11650762Y-12452190D02*
X11660286Y-12442667D01*
X11679333Y-12433143D01*
X11707905Y-12433143D01*
X11726952Y-12442667D01*
X11736476Y-12461714D01*
X11736476Y-12566476D01*
X11736476Y-12461714D02*
X11746000Y-12442667D01*
X11765048Y-12433143D01*
X11793619Y-12433143D01*
X11812667Y-12442667D01*
X11822190Y-12461714D01*
X11822190Y-12566476D01*
X11917428Y-12566476D02*
X11917428Y-12433143D01*
X11917428Y-12452190D02*
X11926952Y-12442667D01*
X11946000Y-12433143D01*
X11974571Y-12433143D01*
X11993619Y-12442667D01*
X12003143Y-12461714D01*
X12003143Y-12566476D01*
X12003143Y-12461714D02*
X12012667Y-12442667D01*
X12031714Y-12433143D01*
X12060286Y-12433143D01*
X12079333Y-12442667D01*
X12088857Y-12461714D01*
X12088857Y-12566476D01*
X12479333Y-12356952D02*
X12307905Y-12614095D01*
X12736476Y-12366476D02*
X12755524Y-12366476D01*
X12774571Y-12376000D01*
X12784095Y-12385524D01*
X12793619Y-12404571D01*
X12803143Y-12442667D01*
X12803143Y-12490286D01*
X12793619Y-12528381D01*
X12784095Y-12547428D01*
X12774571Y-12556952D01*
X12755524Y-12566476D01*
X12736476Y-12566476D01*
X12717428Y-12556952D01*
X12707905Y-12547428D01*
X12698381Y-12528381D01*
X12688857Y-12490286D01*
X12688857Y-12442667D01*
X12698381Y-12404571D01*
X12707905Y-12385524D01*
X12717428Y-12376000D01*
X12736476Y-12366476D01*
X12888857Y-12547428D02*
X12898381Y-12556952D01*
X12888857Y-12566476D01*
X12879333Y-12556952D01*
X12888857Y-12547428D01*
X12888857Y-12566476D01*
X13022190Y-12366476D02*
X13041238Y-12366476D01*
X13060286Y-12376000D01*
X13069809Y-12385524D01*
X13079333Y-12404571D01*
X13088857Y-12442667D01*
X13088857Y-12490286D01*
X13079333Y-12528381D01*
X13069809Y-12547428D01*
X13060286Y-12556952D01*
X13041238Y-12566476D01*
X13022190Y-12566476D01*
X13003143Y-12556952D01*
X12993619Y-12547428D01*
X12984095Y-12528381D01*
X12974571Y-12490286D01*
X12974571Y-12442667D01*
X12984095Y-12404571D01*
X12993619Y-12385524D01*
X13003143Y-12376000D01*
X13022190Y-12366476D01*
X13260286Y-12433143D02*
X13260286Y-12566476D01*
X13212667Y-12356952D02*
X13165048Y-12499809D01*
X13288857Y-12499809D01*
X13346000Y-12366476D02*
X13469809Y-12366476D01*
X13403143Y-12442667D01*
X13431714Y-12442667D01*
X13450762Y-12452190D01*
X13460286Y-12461714D01*
X13469809Y-12480762D01*
X13469809Y-12528381D01*
X13460286Y-12547428D01*
X13450762Y-12556952D01*
X13431714Y-12566476D01*
X13374571Y-12566476D01*
X13355524Y-12556952D01*
X13346000Y-12547428D01*
X13536476Y-12366476D02*
X13660286Y-12366476D01*
X13593619Y-12442667D01*
X13622190Y-12442667D01*
X13641238Y-12452190D01*
X13650762Y-12461714D01*
X13660286Y-12480762D01*
X13660286Y-12528381D01*
X13650762Y-12547428D01*
X13641238Y-12556952D01*
X13622190Y-12566476D01*
X13565048Y-12566476D01*
X13546000Y-12556952D01*
X13536476Y-12547428D01*
X13736476Y-12366476D02*
X13736476Y-12404571D01*
X13812667Y-12366476D02*
X13812667Y-12404571D01*
X14107905Y-12642667D02*
X14098381Y-12633143D01*
X14079333Y-12604571D01*
X14069809Y-12585524D01*
X14060286Y-12556952D01*
X14050762Y-12509333D01*
X14050762Y-12471238D01*
X14060286Y-12423619D01*
X14069809Y-12395048D01*
X14079333Y-12376000D01*
X14098381Y-12347428D01*
X14107905Y-12337905D01*
X14269809Y-12366476D02*
X14231714Y-12366476D01*
X14212667Y-12376000D01*
X14203143Y-12385524D01*
X14184095Y-12414095D01*
X14174571Y-12452190D01*
X14174571Y-12528381D01*
X14184095Y-12547428D01*
X14193619Y-12556952D01*
X14212667Y-12566476D01*
X14250762Y-12566476D01*
X14269809Y-12556952D01*
X14279333Y-12547428D01*
X14288857Y-12528381D01*
X14288857Y-12480762D01*
X14279333Y-12461714D01*
X14269809Y-12452190D01*
X14250762Y-12442667D01*
X14212667Y-12442667D01*
X14193619Y-12452190D01*
X14184095Y-12461714D01*
X14174571Y-12480762D01*
X14526952Y-12566476D02*
X14526952Y-12366476D01*
X14612667Y-12566476D02*
X14612667Y-12461714D01*
X14603143Y-12442667D01*
X14584095Y-12433143D01*
X14555524Y-12433143D01*
X14536476Y-12442667D01*
X14526952Y-12452190D01*
X14736476Y-12566476D02*
X14717428Y-12556952D01*
X14707905Y-12547428D01*
X14698381Y-12528381D01*
X14698381Y-12471238D01*
X14707905Y-12452190D01*
X14717428Y-12442667D01*
X14736476Y-12433143D01*
X14765048Y-12433143D01*
X14784095Y-12442667D01*
X14793619Y-12452190D01*
X14803143Y-12471238D01*
X14803143Y-12528381D01*
X14793619Y-12547428D01*
X14784095Y-12556952D01*
X14765048Y-12566476D01*
X14736476Y-12566476D01*
X14917428Y-12566476D02*
X14898381Y-12556952D01*
X14888857Y-12537905D01*
X14888857Y-12366476D01*
X15069809Y-12556952D02*
X15050762Y-12566476D01*
X15012667Y-12566476D01*
X14993619Y-12556952D01*
X14984095Y-12537905D01*
X14984095Y-12461714D01*
X14993619Y-12442667D01*
X15012667Y-12433143D01*
X15050762Y-12433143D01*
X15069809Y-12442667D01*
X15079333Y-12461714D01*
X15079333Y-12480762D01*
X14984095Y-12499809D01*
X15155524Y-12556952D02*
X15174571Y-12566476D01*
X15212667Y-12566476D01*
X15231714Y-12556952D01*
X15241238Y-12537905D01*
X15241238Y-12528381D01*
X15231714Y-12509333D01*
X15212667Y-12499809D01*
X15184095Y-12499809D01*
X15165048Y-12490286D01*
X15155524Y-12471238D01*
X15155524Y-12461714D01*
X15165048Y-12442667D01*
X15184095Y-12433143D01*
X15212667Y-12433143D01*
X15231714Y-12442667D01*
X15307905Y-12642667D02*
X15317428Y-12633143D01*
X15336476Y-12604571D01*
X15346000Y-12585524D01*
X15355524Y-12556952D01*
X15365048Y-12509333D01*
X15365048Y-12471238D01*
X15355524Y-12423619D01*
X15346000Y-12395048D01*
X15336476Y-12376000D01*
X15317428Y-12347428D01*
X15307905Y-12337905D01*
D15*
X10516962Y-12785962D02*
X10516962Y-12694038D01*
X10425038Y-12694038D01*
X10425038Y-12785962D01*
X10516962Y-12785962D01*
D11*
X10898381Y-12830476D02*
X10784095Y-12830476D01*
X10841238Y-12830476D02*
X10841238Y-12630476D01*
X10822190Y-12659048D01*
X10803143Y-12678095D01*
X10784095Y-12687619D01*
X10984095Y-12811428D02*
X10993619Y-12820952D01*
X10984095Y-12830476D01*
X10974571Y-12820952D01*
X10984095Y-12811428D01*
X10984095Y-12830476D01*
X11060286Y-12630476D02*
X11184095Y-12630476D01*
X11117429Y-12706667D01*
X11146000Y-12706667D01*
X11165048Y-12716190D01*
X11174571Y-12725714D01*
X11184095Y-12744762D01*
X11184095Y-12792381D01*
X11174571Y-12811428D01*
X11165048Y-12820952D01*
X11146000Y-12830476D01*
X11088857Y-12830476D01*
X11069810Y-12820952D01*
X11060286Y-12811428D01*
X11307905Y-12630476D02*
X11326952Y-12630476D01*
X11346000Y-12640000D01*
X11355524Y-12649524D01*
X11365048Y-12668571D01*
X11374571Y-12706667D01*
X11374571Y-12754286D01*
X11365048Y-12792381D01*
X11355524Y-12811428D01*
X11346000Y-12820952D01*
X11326952Y-12830476D01*
X11307905Y-12830476D01*
X11288857Y-12820952D01*
X11279333Y-12811428D01*
X11269809Y-12792381D01*
X11260286Y-12754286D01*
X11260286Y-12706667D01*
X11269809Y-12668571D01*
X11279333Y-12649524D01*
X11288857Y-12640000D01*
X11307905Y-12630476D01*
X11498381Y-12630476D02*
X11517428Y-12630476D01*
X11536476Y-12640000D01*
X11546000Y-12649524D01*
X11555524Y-12668571D01*
X11565048Y-12706667D01*
X11565048Y-12754286D01*
X11555524Y-12792381D01*
X11546000Y-12811428D01*
X11536476Y-12820952D01*
X11517428Y-12830476D01*
X11498381Y-12830476D01*
X11479333Y-12820952D01*
X11469809Y-12811428D01*
X11460286Y-12792381D01*
X11450762Y-12754286D01*
X11450762Y-12706667D01*
X11460286Y-12668571D01*
X11469809Y-12649524D01*
X11479333Y-12640000D01*
X11498381Y-12630476D01*
X11650762Y-12830476D02*
X11650762Y-12697143D01*
X11650762Y-12716190D02*
X11660286Y-12706667D01*
X11679333Y-12697143D01*
X11707905Y-12697143D01*
X11726952Y-12706667D01*
X11736476Y-12725714D01*
X11736476Y-12830476D01*
X11736476Y-12725714D02*
X11746000Y-12706667D01*
X11765048Y-12697143D01*
X11793619Y-12697143D01*
X11812667Y-12706667D01*
X11822190Y-12725714D01*
X11822190Y-12830476D01*
X11917428Y-12830476D02*
X11917428Y-12697143D01*
X11917428Y-12716190D02*
X11926952Y-12706667D01*
X11946000Y-12697143D01*
X11974571Y-12697143D01*
X11993619Y-12706667D01*
X12003143Y-12725714D01*
X12003143Y-12830476D01*
X12003143Y-12725714D02*
X12012667Y-12706667D01*
X12031714Y-12697143D01*
X12060286Y-12697143D01*
X12079333Y-12706667D01*
X12088857Y-12725714D01*
X12088857Y-12830476D01*
X12479333Y-12620952D02*
X12307905Y-12878095D01*
X12736476Y-12630476D02*
X12755524Y-12630476D01*
X12774571Y-12640000D01*
X12784095Y-12649524D01*
X12793619Y-12668571D01*
X12803143Y-12706667D01*
X12803143Y-12754286D01*
X12793619Y-12792381D01*
X12784095Y-12811428D01*
X12774571Y-12820952D01*
X12755524Y-12830476D01*
X12736476Y-12830476D01*
X12717428Y-12820952D01*
X12707905Y-12811428D01*
X12698381Y-12792381D01*
X12688857Y-12754286D01*
X12688857Y-12706667D01*
X12698381Y-12668571D01*
X12707905Y-12649524D01*
X12717428Y-12640000D01*
X12736476Y-12630476D01*
X12888857Y-12811428D02*
X12898381Y-12820952D01*
X12888857Y-12830476D01*
X12879333Y-12820952D01*
X12888857Y-12811428D01*
X12888857Y-12830476D01*
X13022190Y-12630476D02*
X13041238Y-12630476D01*
X13060286Y-12640000D01*
X13069809Y-12649524D01*
X13079333Y-12668571D01*
X13088857Y-12706667D01*
X13088857Y-12754286D01*
X13079333Y-12792381D01*
X13069809Y-12811428D01*
X13060286Y-12820952D01*
X13041238Y-12830476D01*
X13022190Y-12830476D01*
X13003143Y-12820952D01*
X12993619Y-12811428D01*
X12984095Y-12792381D01*
X12974571Y-12754286D01*
X12974571Y-12706667D01*
X12984095Y-12668571D01*
X12993619Y-12649524D01*
X13003143Y-12640000D01*
X13022190Y-12630476D01*
X13269809Y-12630476D02*
X13174571Y-12630476D01*
X13165048Y-12725714D01*
X13174571Y-12716190D01*
X13193619Y-12706667D01*
X13241238Y-12706667D01*
X13260286Y-12716190D01*
X13269809Y-12725714D01*
X13279333Y-12744762D01*
X13279333Y-12792381D01*
X13269809Y-12811428D01*
X13260286Y-12820952D01*
X13241238Y-12830476D01*
X13193619Y-12830476D01*
X13174571Y-12820952D01*
X13165048Y-12811428D01*
X13469809Y-12830476D02*
X13355524Y-12830476D01*
X13412667Y-12830476D02*
X13412667Y-12630476D01*
X13393619Y-12659048D01*
X13374571Y-12678095D01*
X13355524Y-12687619D01*
X13546000Y-12649524D02*
X13555524Y-12640000D01*
X13574571Y-12630476D01*
X13622190Y-12630476D01*
X13641238Y-12640000D01*
X13650762Y-12649524D01*
X13660286Y-12668571D01*
X13660286Y-12687619D01*
X13650762Y-12716190D01*
X13536476Y-12830476D01*
X13660286Y-12830476D01*
X13736476Y-12630476D02*
X13736476Y-12668571D01*
X13812667Y-12630476D02*
X13812667Y-12668571D01*
X14107905Y-12906667D02*
X14098381Y-12897143D01*
X14079333Y-12868571D01*
X14069809Y-12849524D01*
X14060286Y-12820952D01*
X14050762Y-12773333D01*
X14050762Y-12735238D01*
X14060286Y-12687619D01*
X14069809Y-12659048D01*
X14079333Y-12640000D01*
X14098381Y-12611428D01*
X14107905Y-12601905D01*
X14269809Y-12697143D02*
X14269809Y-12830476D01*
X14222190Y-12620952D02*
X14174571Y-12763809D01*
X14298381Y-12763809D01*
X14526952Y-12830476D02*
X14526952Y-12630476D01*
X14612667Y-12830476D02*
X14612667Y-12725714D01*
X14603143Y-12706667D01*
X14584095Y-12697143D01*
X14555524Y-12697143D01*
X14536476Y-12706667D01*
X14526952Y-12716190D01*
X14736476Y-12830476D02*
X14717428Y-12820952D01*
X14707905Y-12811428D01*
X14698381Y-12792381D01*
X14698381Y-12735238D01*
X14707905Y-12716190D01*
X14717428Y-12706667D01*
X14736476Y-12697143D01*
X14765048Y-12697143D01*
X14784095Y-12706667D01*
X14793619Y-12716190D01*
X14803143Y-12735238D01*
X14803143Y-12792381D01*
X14793619Y-12811428D01*
X14784095Y-12820952D01*
X14765048Y-12830476D01*
X14736476Y-12830476D01*
X14917428Y-12830476D02*
X14898381Y-12820952D01*
X14888857Y-12801905D01*
X14888857Y-12630476D01*
X15069809Y-12820952D02*
X15050762Y-12830476D01*
X15012667Y-12830476D01*
X14993619Y-12820952D01*
X14984095Y-12801905D01*
X14984095Y-12725714D01*
X14993619Y-12706667D01*
X15012667Y-12697143D01*
X15050762Y-12697143D01*
X15069809Y-12706667D01*
X15079333Y-12725714D01*
X15079333Y-12744762D01*
X14984095Y-12763809D01*
X15155524Y-12820952D02*
X15174571Y-12830476D01*
X15212667Y-12830476D01*
X15231714Y-12820952D01*
X15241238Y-12801905D01*
X15241238Y-12792381D01*
X15231714Y-12773333D01*
X15212667Y-12763809D01*
X15184095Y-12763809D01*
X15165048Y-12754286D01*
X15155524Y-12735238D01*
X15155524Y-12725714D01*
X15165048Y-12706667D01*
X15184095Y-12697143D01*
X15212667Y-12697143D01*
X15231714Y-12706667D01*
X15307905Y-12906667D02*
X15317428Y-12897143D01*
X15336476Y-12868571D01*
X15346000Y-12849524D01*
X15355524Y-12820952D01*
X15365048Y-12773333D01*
X15365048Y-12735238D01*
X15355524Y-12687619D01*
X15346000Y-12659048D01*
X15336476Y-12640000D01*
X15317428Y-12611428D01*
X15307905Y-12601905D01*
X10436000Y-13104000D02*
X10536000Y-13004000D01*
X10436000Y-12904000D01*
X10336000Y-13004000D01*
X10436000Y-13104000D01*
X10774571Y-12894476D02*
X10898381Y-12894476D01*
X10831714Y-12970667D01*
X10860286Y-12970667D01*
X10879333Y-12980190D01*
X10888857Y-12989714D01*
X10898381Y-13008762D01*
X10898381Y-13056381D01*
X10888857Y-13075428D01*
X10879333Y-13084952D01*
X10860286Y-13094476D01*
X10803143Y-13094476D01*
X10784095Y-13084952D01*
X10774571Y-13075428D01*
X10984095Y-13075428D02*
X10993619Y-13084952D01*
X10984095Y-13094476D01*
X10974571Y-13084952D01*
X10984095Y-13075428D01*
X10984095Y-13094476D01*
X11069810Y-12913524D02*
X11079333Y-12904000D01*
X11098381Y-12894476D01*
X11146000Y-12894476D01*
X11165048Y-12904000D01*
X11174571Y-12913524D01*
X11184095Y-12932571D01*
X11184095Y-12951619D01*
X11174571Y-12980190D01*
X11060286Y-13094476D01*
X11184095Y-13094476D01*
X11307905Y-12894476D02*
X11326952Y-12894476D01*
X11346000Y-12904000D01*
X11355524Y-12913524D01*
X11365048Y-12932571D01*
X11374571Y-12970667D01*
X11374571Y-13018286D01*
X11365048Y-13056381D01*
X11355524Y-13075428D01*
X11346000Y-13084952D01*
X11326952Y-13094476D01*
X11307905Y-13094476D01*
X11288857Y-13084952D01*
X11279333Y-13075428D01*
X11269809Y-13056381D01*
X11260286Y-13018286D01*
X11260286Y-12970667D01*
X11269809Y-12932571D01*
X11279333Y-12913524D01*
X11288857Y-12904000D01*
X11307905Y-12894476D01*
X11498381Y-12894476D02*
X11517428Y-12894476D01*
X11536476Y-12904000D01*
X11546000Y-12913524D01*
X11555524Y-12932571D01*
X11565048Y-12970667D01*
X11565048Y-13018286D01*
X11555524Y-13056381D01*
X11546000Y-13075428D01*
X11536476Y-13084952D01*
X11517428Y-13094476D01*
X11498381Y-13094476D01*
X11479333Y-13084952D01*
X11469809Y-13075428D01*
X11460286Y-13056381D01*
X11450762Y-13018286D01*
X11450762Y-12970667D01*
X11460286Y-12932571D01*
X11469809Y-12913524D01*
X11479333Y-12904000D01*
X11498381Y-12894476D01*
X11650762Y-13094476D02*
X11650762Y-12961143D01*
X11650762Y-12980190D02*
X11660286Y-12970667D01*
X11679333Y-12961143D01*
X11707905Y-12961143D01*
X11726952Y-12970667D01*
X11736476Y-12989714D01*
X11736476Y-13094476D01*
X11736476Y-12989714D02*
X11746000Y-12970667D01*
X11765048Y-12961143D01*
X11793619Y-12961143D01*
X11812667Y-12970667D01*
X11822190Y-12989714D01*
X11822190Y-13094476D01*
X11917428Y-13094476D02*
X11917428Y-12961143D01*
X11917428Y-12980190D02*
X11926952Y-12970667D01*
X11946000Y-12961143D01*
X11974571Y-12961143D01*
X11993619Y-12970667D01*
X12003143Y-12989714D01*
X12003143Y-13094476D01*
X12003143Y-12989714D02*
X12012667Y-12970667D01*
X12031714Y-12961143D01*
X12060286Y-12961143D01*
X12079333Y-12970667D01*
X12088857Y-12989714D01*
X12088857Y-13094476D01*
X12479333Y-12884952D02*
X12307905Y-13142095D01*
X12736476Y-12894476D02*
X12755524Y-12894476D01*
X12774571Y-12904000D01*
X12784095Y-12913524D01*
X12793619Y-12932571D01*
X12803143Y-12970667D01*
X12803143Y-13018286D01*
X12793619Y-13056381D01*
X12784095Y-13075428D01*
X12774571Y-13084952D01*
X12755524Y-13094476D01*
X12736476Y-13094476D01*
X12717428Y-13084952D01*
X12707905Y-13075428D01*
X12698381Y-13056381D01*
X12688857Y-13018286D01*
X12688857Y-12970667D01*
X12698381Y-12932571D01*
X12707905Y-12913524D01*
X12717428Y-12904000D01*
X12736476Y-12894476D01*
X12888857Y-13075428D02*
X12898381Y-13084952D01*
X12888857Y-13094476D01*
X12879333Y-13084952D01*
X12888857Y-13075428D01*
X12888857Y-13094476D01*
X13088857Y-13094476D02*
X12974571Y-13094476D01*
X13031714Y-13094476D02*
X13031714Y-12894476D01*
X13012667Y-12923048D01*
X12993619Y-12942095D01*
X12974571Y-12951619D01*
X13165048Y-12913524D02*
X13174571Y-12904000D01*
X13193619Y-12894476D01*
X13241238Y-12894476D01*
X13260286Y-12904000D01*
X13269809Y-12913524D01*
X13279333Y-12932571D01*
X13279333Y-12951619D01*
X13269809Y-12980190D01*
X13155524Y-13094476D01*
X13279333Y-13094476D01*
X13450762Y-12894476D02*
X13412667Y-12894476D01*
X13393619Y-12904000D01*
X13384095Y-12913524D01*
X13365048Y-12942095D01*
X13355524Y-12980190D01*
X13355524Y-13056381D01*
X13365048Y-13075428D01*
X13374571Y-13084952D01*
X13393619Y-13094476D01*
X13431714Y-13094476D01*
X13450762Y-13084952D01*
X13460286Y-13075428D01*
X13469809Y-13056381D01*
X13469809Y-13008762D01*
X13460286Y-12989714D01*
X13450762Y-12980190D01*
X13431714Y-12970667D01*
X13393619Y-12970667D01*
X13374571Y-12980190D01*
X13365048Y-12989714D01*
X13355524Y-13008762D01*
X13593619Y-12894476D02*
X13612667Y-12894476D01*
X13631714Y-12904000D01*
X13641238Y-12913524D01*
X13650762Y-12932571D01*
X13660286Y-12970667D01*
X13660286Y-13018286D01*
X13650762Y-13056381D01*
X13641238Y-13075428D01*
X13631714Y-13084952D01*
X13612667Y-13094476D01*
X13593619Y-13094476D01*
X13574571Y-13084952D01*
X13565048Y-13075428D01*
X13555524Y-13056381D01*
X13546000Y-13018286D01*
X13546000Y-12970667D01*
X13555524Y-12932571D01*
X13565048Y-12913524D01*
X13574571Y-12904000D01*
X13593619Y-12894476D01*
X13736476Y-12894476D02*
X13736476Y-12932571D01*
X13812667Y-12894476D02*
X13812667Y-12932571D01*
X14107905Y-13170667D02*
X14098381Y-13161143D01*
X14079333Y-13132571D01*
X14069809Y-13113524D01*
X14060286Y-13084952D01*
X14050762Y-13037333D01*
X14050762Y-12999238D01*
X14060286Y-12951619D01*
X14069809Y-12923048D01*
X14079333Y-12904000D01*
X14098381Y-12875428D01*
X14107905Y-12865905D01*
X14174571Y-12913524D02*
X14184095Y-12904000D01*
X14203143Y-12894476D01*
X14250762Y-12894476D01*
X14269809Y-12904000D01*
X14279333Y-12913524D01*
X14288857Y-12932571D01*
X14288857Y-12951619D01*
X14279333Y-12980190D01*
X14165048Y-13094476D01*
X14288857Y-13094476D01*
X14526952Y-13094476D02*
X14526952Y-12894476D01*
X14612667Y-13094476D02*
X14612667Y-12989714D01*
X14603143Y-12970667D01*
X14584095Y-12961143D01*
X14555524Y-12961143D01*
X14536476Y-12970667D01*
X14526952Y-12980190D01*
X14736476Y-13094476D02*
X14717428Y-13084952D01*
X14707905Y-13075428D01*
X14698381Y-13056381D01*
X14698381Y-12999238D01*
X14707905Y-12980190D01*
X14717428Y-12970667D01*
X14736476Y-12961143D01*
X14765048Y-12961143D01*
X14784095Y-12970667D01*
X14793619Y-12980190D01*
X14803143Y-12999238D01*
X14803143Y-13056381D01*
X14793619Y-13075428D01*
X14784095Y-13084952D01*
X14765048Y-13094476D01*
X14736476Y-13094476D01*
X14917428Y-13094476D02*
X14898381Y-13084952D01*
X14888857Y-13065905D01*
X14888857Y-12894476D01*
X15069809Y-13084952D02*
X15050762Y-13094476D01*
X15012667Y-13094476D01*
X14993619Y-13084952D01*
X14984095Y-13065905D01*
X14984095Y-12989714D01*
X14993619Y-12970667D01*
X15012667Y-12961143D01*
X15050762Y-12961143D01*
X15069809Y-12970667D01*
X15079333Y-12989714D01*
X15079333Y-13008762D01*
X14984095Y-13027809D01*
X15155524Y-13084952D02*
X15174571Y-13094476D01*
X15212667Y-13094476D01*
X15231714Y-13084952D01*
X15241238Y-13065905D01*
X15241238Y-13056381D01*
X15231714Y-13037333D01*
X15212667Y-13027809D01*
X15184095Y-13027809D01*
X15165048Y-13018286D01*
X15155524Y-12999238D01*
X15155524Y-12989714D01*
X15165048Y-12970667D01*
X15184095Y-12961143D01*
X15212667Y-12961143D01*
X15231714Y-12970667D01*
X15307905Y-13170667D02*
X15317428Y-13161143D01*
X15336476Y-13132571D01*
X15346000Y-13113524D01*
X15355524Y-13084952D01*
X15365048Y-13037333D01*
X15365048Y-12999238D01*
X15355524Y-12951619D01*
X15346000Y-12923048D01*
X15336476Y-12904000D01*
X15317428Y-12875428D01*
X15307905Y-12865905D01*
M02*
