%FSLAX45Y45*%
G04 Gerber Fmt 4.5, Leading zero omitted, Abs format (unit mm)*
G04 Created by KiCad (PCBNEW (6.0.5)) date 2022-06-23 10:46:32*
%MOMM*%
%LPD*%
G01*
G04 APERTURE LIST*
%TA.AperFunction,Profile*%
%ADD10C,0.100000*%
%TD*%
%ADD11C,0.200000*%
G04 APERTURE END LIST*
D10*
X10541000Y-8001000D02*
X14478000Y-8001000D01*
X14478000Y-8001000D02*
X14478000Y-11303000D01*
X14478000Y-11303000D02*
X10541000Y-11303000D01*
X10541000Y-11303000D02*
X10541000Y-8001000D01*
D11*
X10793619Y-11618476D02*
X10793619Y-11418476D01*
X10841238Y-11418476D01*
X10869810Y-11428000D01*
X10888857Y-11447048D01*
X10898381Y-11466095D01*
X10907905Y-11504190D01*
X10907905Y-11532762D01*
X10898381Y-11570857D01*
X10888857Y-11589905D01*
X10869810Y-11608952D01*
X10841238Y-11618476D01*
X10793619Y-11618476D01*
X10993619Y-11618476D02*
X10993619Y-11485143D01*
X10993619Y-11523238D02*
X11003143Y-11504190D01*
X11012667Y-11494667D01*
X11031714Y-11485143D01*
X11050762Y-11485143D01*
X11117429Y-11618476D02*
X11117429Y-11485143D01*
X11117429Y-11418476D02*
X11107905Y-11428000D01*
X11117429Y-11437524D01*
X11126952Y-11428000D01*
X11117429Y-11418476D01*
X11117429Y-11437524D01*
X11241238Y-11618476D02*
X11222190Y-11608952D01*
X11212667Y-11589905D01*
X11212667Y-11418476D01*
X11346000Y-11618476D02*
X11326952Y-11608952D01*
X11317428Y-11589905D01*
X11317428Y-11418476D01*
X11574571Y-11618476D02*
X11574571Y-11418476D01*
X11641238Y-11561333D01*
X11707905Y-11418476D01*
X11707905Y-11618476D01*
X11888857Y-11618476D02*
X11888857Y-11513714D01*
X11879333Y-11494667D01*
X11860286Y-11485143D01*
X11822190Y-11485143D01*
X11803143Y-11494667D01*
X11888857Y-11608952D02*
X11869809Y-11618476D01*
X11822190Y-11618476D01*
X11803143Y-11608952D01*
X11793619Y-11589905D01*
X11793619Y-11570857D01*
X11803143Y-11551809D01*
X11822190Y-11542286D01*
X11869809Y-11542286D01*
X11888857Y-11532762D01*
X11984095Y-11485143D02*
X11984095Y-11685143D01*
X11984095Y-11494667D02*
X12003143Y-11485143D01*
X12041238Y-11485143D01*
X12060286Y-11494667D01*
X12069809Y-11504190D01*
X12079333Y-11523238D01*
X12079333Y-11580381D01*
X12069809Y-11599428D01*
X12060286Y-11608952D01*
X12041238Y-11618476D01*
X12003143Y-11618476D01*
X11984095Y-11608952D01*
X12165048Y-11599428D02*
X12174571Y-11608952D01*
X12165048Y-11618476D01*
X12155524Y-11608952D01*
X12165048Y-11599428D01*
X12165048Y-11618476D01*
X12165048Y-11494667D02*
X12174571Y-11504190D01*
X12165048Y-11513714D01*
X12155524Y-11504190D01*
X12165048Y-11494667D01*
X12165048Y-11513714D01*
M02*
